<?xml version="1.0" standalone="no"?>
<!DOCTYPE svg PUBLIC "-//W3C//DTD SVG 20010904//EN"
 "http://www.w3.org/TR/2001/REC-SVG-20010904/DTD/svg10.dtd">
<svg version="1.0" xmlns="http://www.w3.org/2000/svg"
 width="24px" height="24px" viewBox="0 0 512.000000 512.000000"
 preserveAspectRatio="xMidYMid meet">

<g transform="translate(0.000000,512.000000) scale(0.100000,-0.100000)"
fill="#000000" stroke="none">
<path d="M1795 5106 c-116 -23 -219 -62 -440 -166 -233 -109 -299 -134 -401
-150 -114 -19 -223 4 -388 80 -47 21 -87 36 -90 32 -22 -37 -89 -286 -98 -365
-27 -225 48 -449 216 -650 l39 -47 -20 -23 c-66 -73 -167 -258 -201 -369 -67
-217 -57 -473 28 -706 55 -151 146 -316 250 -452 56 -74 57 -78 64 -155 39
-434 252 -803 607 -1054 42 -30 50 -42 79 -122 170 -476 513 -791 1012 -930
l108 -31 108 31 c499 139 842 454 1012 930 29 80 37 92 79 122 355 251 568
620 607 1054 7 77 8 81 64 155 289 379 389 798 278 1158 -34 111 -135 296
-201 369 l-20 23 39 47 c168 201 243 425 216 650 -9 79 -76 328 -98 365 -3 4
-43 -11 -90 -32 -165 -76 -274 -99 -388 -80 -102 16 -168 41 -401 150 -226
106 -327 144 -445 166 -235 43 -472 -27 -686 -203 -35 -29 -68 -53 -75 -53 -6
0 -34 20 -62 43 -110 93 -256 172 -372 202 -85 22 -245 28 -330 11z m203 -326
c152 -25 289 -121 495 -349 l67 -73 67 73 c300 331 475 406 743 318 36 -11
153 -63 260 -114 331 -157 413 -180 637 -180 l152 1 -5 -46 c-9 -68 -24 -120
-49 -170 -131 -259 -468 -449 -868 -490 -258 -27 -520 36 -693 166 -48 36 -94
84 -201 209 l-43 50 -42 -50 c-155 -180 -203 -222 -320 -281 -362 -182 -914
-107 -1259 172 -134 108 -214 243 -233 395 l-5 46 152 -1 c223 -1 306 22 637
179 203 97 297 132 384 145 28 4 53 8 56 9 3 0 33 -4 68 -9z m642 -1155 c143
-97 284 -155 467 -192 136 -27 431 -25 581 5 149 30 299 80 430 143 l107 51
30 -35 c49 -57 104 -157 132 -242 24 -72 27 -94 27 -215 -1 -138 -17 -222 -70
-345 l-17 -40 -28 104 c-33 124 -78 251 -89 251 -4 0 -52 -20 -106 -44 -55
-24 -120 -52 -146 -64 l-47 -20 39 -119 c64 -196 84 -326 85 -548 0 -200 -12
-286 -57 -420 -28 -82 -100 -221 -148 -285 l-40 -54 0 165 c0 90 -4 169 -8
175 -5 8 -51 7 -167 -2 -88 -7 -160 -13 -160 -13 0 -430 -5 -491 -51 -680 -55
-221 -154 -408 -289 -545 -133 -135 -256 -211 -453 -280 l-102 -35 -102 35
c-197 69 -320 145 -453 280 -135 137 -234 324 -289 545 -46 189 -51 250 -51
680 0 0 -72 6 -160 13 -116 9 -162 10 -167 2 -4 -6 -8 -85 -8 -175 l0 -165
-40 54 c-48 64 -120 203 -148 285 -46 135 -57 220 -56 425 0 172 3 210 27 324
15 71 43 176 62 233 l33 105 -46 20 c-26 12 -91 40 -146 64 -54 24 -102 44
-106 44 -11 0 -56 -126 -90 -251 l-28 -104 -16 37 c-9 20 -28 76 -43 125 -23
77 -27 105 -27 223 0 120 3 144 27 215 28 85 83 185 132 242 l30 35 105 -50
c507 -245 1106 -226 1485 46 39 28 71 51 72 51 1 1 39 -24 83 -54z"/>
</g>
</svg>
