<?xml version="1.0" standalone="no"?>
<!DOCTYPE svg PUBLIC "-//W3C//DTD SVG 20010904//EN"
 "http://www.w3.org/TR/2001/REC-SVG-20010904/DTD/svg10.dtd">
<svg version="1.0" xmlns="http://www.w3.org/2000/svg"
 width="24px" height="24px" viewBox="0 0 512.000000 512.000000"
 preserveAspectRatio="xMidYMid meet">

<g transform="translate(0.000000,512.000000) scale(0.100000,-0.100000)"
fill="#000000" stroke="none">
<path d="M2360 5109 c-695 -70 -1310 -497 -1615 -1122 -129 -266 -201 -546
-205 -802 -3 -133 -2 -134 29 -166 57 -56 150 -29 170 49 5 20 12 91 15 157
16 345 161 717 389 1000 89 110 254 267 367 347 125 89 338 197 479 242 395
128 774 125 1170 -10 149 -50 175 -51 216 -2 45 53 26 131 -40 162 -70 34
-274 95 -381 115 -210 39 -402 49 -594 30z"/>
<path d="M3520 4881 l0 -239 -189 -246 c-127 -165 -197 -266 -213 -304 -22
-57 -23 -61 -23 -527 l0 -470 105 0 105 0 3 213 2 212 105 0 105 0 0 -215 0
-215 105 0 105 0 0 215 0 215 110 0 110 0 0 -215 0 -215 105 0 105 0 0 453 c0
493 -3 530 -57 612 -14 22 -104 142 -200 267 l-173 227 0 235 0 236 -105 0
-105 0 0 -239z m252 -634 c179 -232 178 -230 178 -389 l0 -128 -320 0 -320 0
0 138 c0 100 4 145 15 165 25 48 297 397 306 392 4 -3 68 -83 141 -178z"/>
<path d="M4354 3761 c-31 -14 -64 -60 -64 -91 0 -14 7 -50 16 -80 9 -29 25
-96 37 -149 19 -92 21 -134 26 -928 l6 -833 32 -31 c44 -45 102 -45 146 0 l32
31 0 788 c0 705 -2 799 -18 902 -26 170 -73 340 -100 368 -26 25 -81 36 -113
23z"/>
<path d="M998 3381 l-33 -29 0 -152 0 -152 33 -29 c36 -32 77 -37 121 -15 43
23 51 54 51 196 0 142 -8 173 -51 196 -44 22 -85 17 -121 -15z"/>
<path d="M1441 3396 c-43 -24 -50 -52 -51 -193 0 -145 8 -176 51 -199 44 -22
85 -17 121 15 l33 29 0 152 0 152 -33 29 c-36 32 -80 38 -121 15z"/>
<path d="M1857 3390 c-35 -28 -47 -76 -47 -190 0 -114 12 -162 47 -190 57 -45
143 -14 163 58 5 20 10 80 10 132 0 52 -5 112 -10 132 -14 48 -52 78 -100 78
-22 0 -48 -8 -63 -20z"/>
<path d="M2284 3392 c-12 -9 -27 -27 -33 -39 -16 -31 -16 -3235 0 -3266 19
-38 51 -57 97 -57 35 0 49 6 73 29 l29 29 0 1632 0 1632 -29 29 c-24 23 -38
29 -73 29 -26 0 -52 -7 -64 -18z"/>
<path d="M934 2983 c-12 -2 -34 -17 -50 -34 -28 -29 -29 -31 -35 -187 -7 -197
-13 -211 -155 -418 -145 -210 -154 -227 -154 -292 0 -63 16 -98 65 -140 38
-34 42 -35 153 -56 40 -8 76 -16 78 -19 3 -3 -11 -38 -31 -78 -33 -65 -36 -78
-31 -123 10 -72 42 -133 101 -189 l50 -49 5 -137 c5 -129 7 -140 38 -204 36
-74 88 -122 168 -159 47 -22 61 -23 370 -26 l322 -3 23 -25 23 -25 -37 -363
c-26 -248 -35 -370 -29 -387 21 -54 92 -83 141 -57 55 30 58 42 96 403 19 187
35 361 35 386 0 74 -28 138 -84 195 -82 81 -98 84 -448 84 -410 0 -400 -6
-408 224 -5 132 -7 144 -35 194 -16 29 -45 67 -64 84 -20 17 -40 37 -44 45 -5
8 4 45 24 96 27 68 33 99 37 188 l4 105 -135 24 c-75 13 -141 26 -148 30 -8 6
17 49 81 141 174 251 189 289 199 514 4 88 6 169 3 181 -9 47 -75 87 -128 77z"/>
<path d="M3174 2983 c-12 -2 -34 -18 -50 -34 l-29 -30 -3 -372 c-2 -205 0
-392 3 -416 9 -62 50 -101 105 -101 55 0 96 39 105 101 3 24 5 212 3 416 l-3
373 -30 29 c-31 29 -64 41 -101 34z"/>
<path d="M3592 2978 c-21 -6 -40 -21 -53 -41 -18 -31 -19 -49 -17 -440 l3
-409 33 -29 c36 -32 77 -37 121 -15 50 26 51 37 51 471 l0 404 -22 26 c-28 32
-73 44 -116 33z"/>
<path d="M4014 2975 c-65 -27 -64 -17 -64 -462 0 -432 1 -443 51 -469 44 -22
85 -17 121 15 l33 29 3 406 c2 350 1 410 -13 436 -25 48 -81 67 -131 45z"/>
<path d="M3143 1900 c-85 -52 -44 -190 57 -190 70 0 117 66 98 138 -10 37 -58
72 -98 72 -14 0 -39 -9 -57 -20z"/>
<path d="M3578 1905 c-65 -36 -73 -122 -17 -169 97 -82 226 50 142 144 -34 37
-85 47 -125 25z"/>
<path d="M4014 1910 c-32 -13 -64 -59 -64 -92 0 -92 100 -141 169 -82 89 75 3
218 -105 174z"/>
<path d="M2743 1538 c-98 -26 -96 -170 2 -197 66 -18 135 32 135 99 0 21 -33
90 -42 90 -2 0 -17 4 -33 8 -17 5 -44 5 -62 0z"/>
<path d="M3634 1476 c-56 -18 -127 -70 -160 -117 -37 -54 -53 -107 -60 -204
l-7 -85 -104 0 -105 0 4 -272 c4 -265 5 -275 31 -355 65 -195 214 -344 411
-411 l81 -27 435 0 435 0 82 28 c196 66 345 216 410 411 26 78 27 90 31 354
l4 272 -105 0 -104 0 -7 85 c-3 46 -15 109 -26 138 -24 65 -91 136 -158 169
l-47 23 -500 2 c-390 2 -509 -1 -541 -11z m999 -207 c44 -23 57 -50 57 -126
l0 -73 -530 0 -530 0 0 73 c0 75 12 102 55 125 28 16 918 16 948 1z m277 -539
c0 -65 -5 -143 -11 -172 -36 -170 -167 -301 -337 -337 -72 -15 -733 -15 -804
0 -170 37 -301 168 -337 337 -6 29 -11 107 -11 172 l0 120 750 0 750 0 0 -120z"/>
<path d="M2734 1215 c-67 -28 -64 -2 -64 -602 l0 -543 29 -32 c25 -28 36 -33
75 -33 36 0 51 6 73 28 l28 27 3 540 c2 470 1 544 -13 570 -25 48 -81 67 -131
45z"/>
</g>
</svg>
