<?xml version="1.0" standalone="no"?>
<!DOCTYPE svg PUBLIC "-//W3C//DTD SVG 20010904//EN"
 "http://www.w3.org/TR/2001/REC-SVG-20010904/DTD/svg10.dtd">
<svg version="1.0" xmlns="http://www.w3.org/2000/svg"
 width="24px" height="24px" viewBox="0 0 200.000000 200.000000"
 preserveAspectRatio="xMidYMid meet">

<g transform="translate(0.000000,200.000000) scale(0.100000,-0.100000)"
fill="#000000" stroke="none">
<path d="M417 1665 c-90 -25 -160 -67 -233 -139 -78 -79 -125 -161 -145 -254
-17 -82 -6 -237 26 -359 23 -92 24 -105 11 -125 -27 -43 -29 -84 -6 -135 12
-26 22 -70 23 -98 3 -67 35 -117 92 -145 33 -16 45 -28 45 -43 0 -29 34 -83
61 -97 47 -26 80 -29 123 -14 32 12 131 21 251 23 6 0 34 -2 63 -5 32 -4 65
-1 83 6 38 16 88 74 96 111 3 18 17 35 39 48 46 28 67 73 61 134 -3 35 -11 56
-29 74 l-25 25 28 73 c78 201 107 411 74 543 -43 178 -194 329 -376 377 -66
18 -197 18 -262 0z m133 -116 c-54 -104 -181 -185 -309 -196 -44 -4 -71 -2
-71 4 0 17 54 86 98 125 71 64 171 105 260 107 l42 1 -20 -41z m196 -9 c60
-30 153 -114 141 -127 -21 -20 -215 42 -244 79 -13 16 11 78 30 78 8 0 40 -13
73 -30z m-128 -145 c62 -41 150 -67 244 -73 l87 -5 13 -36 c32 -89 7 -306 -54
-469 l-20 -53 -20 38 c-53 101 -173 180 -289 190 -109 10 -238 -43 -301 -122
-14 -18 -24 -21 -60 -16 l-43 6 -23 90 c-26 102 -38 225 -28 279 l7 36 72 0
c128 0 236 40 327 120 25 22 46 39 48 40 1 0 20 -11 40 -25z m13 -511 c100
-30 189 -148 189 -251 0 -19 5 -23 33 -23 47 0 74 -31 61 -68 -8 -23 -15 -27
-56 -30 l-47 -3 6 -50 c5 -43 3 -53 -17 -74 -27 -29 -65 -32 -98 -10 -20 14
-26 14 -67 0 -54 -18 -100 -19 -161 -4 -42 11 -46 10 -60 -10 -17 -23 -62 -29
-82 -9 -7 7 -12 24 -12 40 0 48 -20 77 -61 88 -72 20 -94 67 -60 126 12 20 21
38 19 39 -2 1 -18 10 -36 19 -24 13 -32 23 -32 44 0 58 50 69 95 22 16 -16 32
-30 35 -30 4 0 15 18 25 39 26 58 95 121 157 142 66 23 100 23 169 3z"/>
<path d="M311 1144 c-27 -35 -26 -59 4 -89 45 -46 115 -19 115 45 0 65 -79 94
-119 44z"/>
<path d="M692 1154 c-15 -11 -22 -25 -22 -50 0 -63 62 -96 108 -56 71 59 -10
160 -86 106z"/>
<path d="M366 741 c-23 -26 -31 -82 -16 -126 18 -53 58 -67 195 -68 119 0 179
13 195 43 6 10 10 45 10 78 0 90 -3 92 -202 92 -149 0 -167 -2 -182 -19z m294
-86 c0 -12 -19 -15 -110 -15 -91 0 -110 3 -110 15 0 12 19 15 110 15 91 0 110
-3 110 -15z"/>
<path d="M1275 1495 c-23 -22 -25 -31 -25 -128 0 -90 3 -108 21 -131 20 -26
21 -26 161 -26 l140 0 -7 -405 -8 -405 37 -15 c32 -14 40 -14 72 0 l37 15 -7
233 c-3 127 -7 309 -7 402 l-2 170 124 3 c163 4 159 0 159 154 0 172 31 158
-355 158 l-316 0 -24 -25z m605 -85 c0 -19 -7 -20 -265 -20 -258 0 -265 1
-265 20 0 19 7 20 265 20 258 0 265 -1 265 -20z m0 -90 c0 -19 -7 -20 -265
-20 -258 0 -265 1 -265 20 0 19 7 20 265 20 258 0 265 -1 265 -20z"/>
</g>
</svg>
